<svg width="505" height="90" viewBox="0 0 505 90" fill="none" xmlns="http://www.w3.org/2000/svg">
    <rect x="121" y="24" width="169" height="54" fill="url(#paint0_linear_8_129)"/>
    <path d="M138.592 73V36.648H124.256V28.2H163.296V36.648H148.96V73H138.592ZM181.055 73.512C177.385 73.512 174.121 72.744 171.263 71.208C168.447 69.672 166.207 67.5813 164.543 64.936C162.921 62.248 162.111 59.1973 162.111 55.784C162.111 52.328 162.921 49.2773 164.543 46.632C166.207 43.944 168.447 41.8533 171.263 40.36C174.121 38.824 177.385 38.056 181.055 38.056C184.681 38.056 187.924 38.824 190.783 40.36C193.641 41.8533 195.881 43.9227 197.503 46.568C199.124 49.2133 199.935 52.2853 199.935 55.784C199.935 59.1973 199.124 62.248 197.503 64.936C195.881 67.5813 193.641 69.672 190.783 71.208C187.924 72.744 184.681 73.512 181.055 73.512ZM181.055 65.32C182.719 65.32 184.212 64.936 185.535 64.168C186.857 63.4 187.903 62.312 188.671 60.904C189.439 59.4533 189.823 57.7467 189.823 55.784C189.823 53.7787 189.439 52.072 188.671 50.664C187.903 49.256 186.857 48.168 185.535 47.4C184.212 46.632 182.719 46.248 181.055 46.248C179.391 46.248 177.897 46.632 176.575 47.4C175.252 48.168 174.185 49.256 173.375 50.664C172.607 52.072 172.223 53.7787 172.223 55.784C172.223 57.7467 172.607 59.4533 173.375 60.904C174.185 62.312 175.252 63.4 176.575 64.168C177.897 64.936 179.391 65.32 181.055 65.32ZM221.392 73.512C218.149 73.512 215.227 72.7867 212.624 71.336C210.021 69.8427 207.952 67.7733 206.416 65.128C204.923 62.4827 204.176 59.368 204.176 55.784C204.176 52.1573 204.923 49.0213 206.416 46.376C207.952 43.7307 210.021 41.6827 212.624 40.232C215.227 38.7813 218.149 38.056 221.392 38.056C224.293 38.056 226.832 38.696 229.008 39.976C231.184 41.256 232.869 43.1973 234.064 45.8C235.259 48.4027 235.856 51.7307 235.856 55.784C235.856 59.7947 235.28 63.1227 234.128 65.768C232.976 68.3707 231.312 70.312 229.136 71.592C227.003 72.872 224.421 73.512 221.392 73.512ZM223.12 65.32C224.741 65.32 226.213 64.936 227.536 64.168C228.859 63.4 229.904 62.312 230.672 60.904C231.483 59.4533 231.888 57.7467 231.888 55.784C231.888 53.7787 231.483 52.072 230.672 50.664C229.904 49.256 228.859 48.168 227.536 47.4C226.213 46.632 224.741 46.248 223.12 46.248C221.456 46.248 219.963 46.632 218.64 47.4C217.317 48.168 216.251 49.256 215.44 50.664C214.672 52.072 214.288 53.7787 214.288 55.784C214.288 57.7467 214.672 59.4533 215.44 60.904C216.251 62.312 217.317 63.4 218.64 64.168C219.963 64.936 221.456 65.32 223.12 65.32ZM232.144 73V65.96L232.336 55.72L231.696 45.544V25.512H241.68V73H232.144ZM267.305 73.512C263.635 73.512 260.371 72.744 257.513 71.208C254.697 69.672 252.457 67.5813 250.793 64.936C249.171 62.248 248.361 59.1973 248.361 55.784C248.361 52.328 249.171 49.2773 250.793 46.632C252.457 43.944 254.697 41.8533 257.513 40.36C260.371 38.824 263.635 38.056 267.305 38.056C270.931 38.056 274.174 38.824 277.033 40.36C279.891 41.8533 282.131 43.9227 283.753 46.568C285.374 49.2133 286.185 52.2853 286.185 55.784C286.185 59.1973 285.374 62.248 283.753 64.936C282.131 67.5813 279.891 69.672 277.033 71.208C274.174 72.744 270.931 73.512 267.305 73.512ZM267.305 65.32C268.969 65.32 270.462 64.936 271.785 64.168C273.107 63.4 274.153 62.312 274.921 60.904C275.689 59.4533 276.073 57.7467 276.073 55.784C276.073 53.7787 275.689 52.072 274.921 50.664C274.153 49.256 273.107 48.168 271.785 47.4C270.462 46.632 268.969 46.248 267.305 46.248C265.641 46.248 264.147 46.632 262.825 47.4C261.502 48.168 260.435 49.256 259.625 50.664C258.857 52.072 258.473 53.7787 258.473 55.784C258.473 57.7467 258.857 59.4533 259.625 60.904C260.435 62.312 261.502 63.4 262.825 64.168C264.147 64.936 265.641 65.32 267.305 65.32ZM315.642 73.512C311.973 73.512 308.709 72.744 305.85 71.208C303.034 69.672 300.794 67.5813 299.13 64.936C297.509 62.248 296.698 59.1973 296.698 55.784C296.698 52.328 297.509 49.2773 299.13 46.632C300.794 43.944 303.034 41.8533 305.85 40.36C308.709 38.824 311.973 38.056 315.642 38.056C319.269 38.056 322.511 38.824 325.37 40.36C328.229 41.8533 330.469 43.9227 332.09 46.568C333.711 49.2133 334.522 52.2853 334.522 55.784C334.522 59.1973 333.711 62.248 332.09 64.936C330.469 67.5813 328.229 69.672 325.37 71.208C322.511 72.744 319.269 73.512 315.642 73.512ZM315.642 65.32C317.306 65.32 318.799 64.936 320.122 64.168C321.445 63.4 322.49 62.312 323.258 60.904C324.026 59.4533 324.41 57.7467 324.41 55.784C324.41 53.7787 324.026 52.072 323.258 50.664C322.49 49.256 321.445 48.168 320.122 47.4C318.799 46.632 317.306 46.248 315.642 46.248C313.978 46.248 312.485 46.632 311.162 47.4C309.839 48.168 308.773 49.256 307.962 50.664C307.194 52.072 306.81 53.7787 306.81 55.784C306.81 57.7467 307.194 59.4533 307.962 60.904C308.773 62.312 309.839 63.4 311.162 64.168C312.485 64.936 313.978 65.32 315.642 65.32ZM341.195 73V25.512H351.179V73H341.195ZM376.829 73.512C373.16 73.512 369.896 72.744 367.037 71.208C364.221 69.672 361.981 67.5813 360.317 64.936C358.696 62.248 357.885 59.1973 357.885 55.784C357.885 52.328 358.696 49.2773 360.317 46.632C361.981 43.944 364.221 41.8533 367.037 40.36C369.896 38.824 373.16 38.056 376.829 38.056C380.456 38.056 383.699 38.824 386.557 40.36C389.416 41.8533 391.656 43.9227 393.277 46.568C394.899 49.2133 395.709 52.2853 395.709 55.784C395.709 59.1973 394.899 62.248 393.277 64.936C391.656 67.5813 389.416 69.672 386.557 71.208C383.699 72.744 380.456 73.512 376.829 73.512ZM376.829 65.32C378.493 65.32 379.987 64.936 381.309 64.168C382.632 63.4 383.677 62.312 384.445 60.904C385.213 59.4533 385.597 57.7467 385.597 55.784C385.597 53.7787 385.213 52.072 384.445 50.664C383.677 49.256 382.632 48.168 381.309 47.4C379.987 46.632 378.493 46.248 376.829 46.248C375.165 46.248 373.672 46.632 372.349 47.4C371.027 48.168 369.96 49.256 369.149 50.664C368.381 52.072 367.997 53.7787 367.997 55.784C367.997 57.7467 368.381 59.4533 369.149 60.904C369.96 62.312 371.027 63.4 372.349 64.168C373.672 64.936 375.165 65.32 376.829 65.32ZM418.575 85.928C415.332 85.928 412.196 85.5227 409.167 84.712C406.18 83.944 403.684 82.7707 401.679 81.192L405.647 74.024C407.098 75.2187 408.932 76.1573 411.151 76.84C413.412 77.5653 415.631 77.928 417.807 77.928C421.348 77.928 423.908 77.1387 425.487 75.56C427.108 73.9813 427.919 71.6347 427.919 68.52V63.336L428.559 54.696L428.431 45.992V38.568H437.903V67.24C437.903 73.64 436.239 78.3547 432.911 81.384C429.583 84.4133 424.804 85.928 418.575 85.928ZM417.039 71.336C413.839 71.336 410.938 70.6533 408.335 69.288C405.775 67.88 403.706 65.9387 402.127 63.464C400.591 60.9467 399.823 58.024 399.823 54.696C399.823 51.3253 400.591 48.4027 402.127 45.928C403.706 43.4107 405.775 41.4693 408.335 40.104C410.938 38.7387 413.839 38.056 417.039 38.056C419.94 38.056 422.5 38.6533 424.719 39.848C426.938 41 428.666 42.8133 429.903 45.288C431.14 47.72 431.759 50.856 431.759 54.696C431.759 58.4933 431.14 61.6293 429.903 64.104C428.666 66.536 426.938 68.3493 424.719 69.544C422.5 70.7387 419.94 71.336 417.039 71.336ZM419.023 63.144C420.772 63.144 422.33 62.8027 423.695 62.12C425.06 61.3947 426.127 60.392 426.895 59.112C427.663 57.832 428.047 56.36 428.047 54.696C428.047 52.9893 427.663 51.5173 426.895 50.28C426.127 49 425.06 48.0187 423.695 47.336C422.33 46.6107 420.772 46.248 419.023 46.248C417.274 46.248 415.716 46.6107 414.351 47.336C412.986 48.0187 411.898 49 411.087 50.28C410.319 51.5173 409.935 52.9893 409.935 54.696C409.935 56.36 410.319 57.832 411.087 59.112C411.898 60.392 412.986 61.3947 414.351 62.12C415.716 62.8027 417.274 63.144 419.023 63.144ZM451.547 85.928C449.755 85.928 447.985 85.6507 446.235 85.096C444.486 84.5413 443.057 83.7733 441.947 82.792L445.595 75.688C446.363 76.3707 447.238 76.904 448.219 77.288C449.243 77.672 450.246 77.864 451.227 77.864C452.635 77.864 453.745 77.5227 454.555 76.84C455.409 76.2 456.177 75.112 456.859 73.576L458.651 69.352L459.419 68.264L471.771 38.568H481.371L465.819 75.112C464.71 77.8853 463.43 80.0613 461.979 81.64C460.571 83.2187 458.993 84.328 457.243 84.968C455.537 85.608 453.638 85.928 451.547 85.928ZM457.435 74.344L442.075 38.568H452.379L464.283 67.368L457.435 74.344Z"
          fill="white"/>
    <rect width="59.9723" height="21.1352" rx="10.5676"
          transform="matrix(0.705387 0.708822 -0.705387 0.708822 14.9085 32.5092)" fill="url(#paint1_linear_8_129)"/>
    <path d="M35.0033 82.3961C30.8864 78.2592 30.8865 71.5519 35.0033 67.415L94.6373 7.49057C98.7541 3.35365 105.429 3.35365 109.546 7.49057C113.663 11.6275 113.663 18.3347 109.546 22.4717L49.9118 82.3961C45.7949 86.533 39.1202 86.533 35.0033 82.3961Z"
          fill="url(#paint2_linear_8_129)"/>
    <defs>
        <linearGradient id="paint0_linear_8_129" x1="173.56" y1="24" x2="250.646" y2="63.1391"
                        gradientUnits="userSpaceOnUse">
            <stop stop-color="#3F83F8"/>
            <stop offset="1" stop-color="#5850EC"/>
        </linearGradient>
        <linearGradient id="paint1_linear_8_129" x1="-3.94187" y1="10.2191" x2="45.3761" y2="12.3778"
                        gradientUnits="userSpaceOnUse">
            <stop stop-color="#3F83F8"/>
            <stop offset="1" stop-color="#5850EC"/>
        </linearGradient>
        <linearGradient id="paint2_linear_8_129" x1="67.4681" y1="40.0189" x2="79.7888" y2="52.374"
                        gradientUnits="userSpaceOnUse">
            <stop stop-color="#3F83F8"/>
            <stop offset="1" stop-color="#5850EC"/>
        </linearGradient>
    </defs>
</svg>
