<svg width="505" height="90" viewBox="0 0 505 90" fill="none" xmlns="http://www.w3.org/2000/svg">
<path d="M138.592 73V36.648H124.256V28.2H163.296V36.648H148.96V73H138.592ZM181.055 73.512C177.385 73.512 174.121 72.744 171.263 71.208C168.447 69.672 166.207 67.5813 164.543 64.936C162.921 62.248 162.111 59.1973 162.111 55.784C162.111 52.328 162.921 49.2773 164.543 46.632C166.207 43.944 168.447 41.8533 171.263 40.36C174.121 38.824 177.385 38.056 181.055 38.056C184.681 38.056 187.924 38.824 190.783 40.36C193.641 41.8533 195.881 43.9227 197.503 46.568C199.124 49.2133 199.935 52.2853 199.935 55.784C199.935 59.1973 199.124 62.248 197.503 64.936C195.881 67.5813 193.641 69.672 190.783 71.208C187.924 72.744 184.681 73.512 181.055 73.512ZM181.055 65.32C182.719 65.32 184.212 64.936 185.535 64.168C186.857 63.4 187.903 62.312 188.671 60.904C189.439 59.4533 189.823 57.7467 189.823 55.784C189.823 53.7787 189.439 52.072 188.671 50.664C187.903 49.256 186.857 48.168 185.535 47.4C184.212 46.632 182.719 46.248 181.055 46.248C179.391 46.248 177.897 46.632 176.575 47.4C175.252 48.168 174.185 49.256 173.375 50.664C172.607 52.072 172.223 53.7787 172.223 55.784C172.223 57.7467 172.607 59.4533 173.375 60.904C174.185 62.312 175.252 63.4 176.575 64.168C177.897 64.936 179.391 65.32 181.055 65.32ZM221.392 73.512C218.149 73.512 215.227 72.7867 212.624 71.336C210.021 69.8427 207.952 67.7733 206.416 65.128C204.923 62.4827 204.176 59.368 204.176 55.784C204.176 52.1573 204.923 49.0213 206.416 46.376C207.952 43.7307 210.021 41.6827 212.624 40.232C215.227 38.7813 218.149 38.056 221.392 38.056C224.293 38.056 226.832 38.696 229.008 39.976C231.184 41.256 232.869 43.1973 234.064 45.8C235.259 48.4027 235.856 51.7307 235.856 55.784C235.856 59.7947 235.28 63.1227 234.128 65.768C232.976 68.3707 231.312 70.312 229.136 71.592C227.003 72.872 224.421 73.512 221.392 73.512ZM223.12 65.32C224.741 65.32 226.213 64.936 227.536 64.168C228.859 63.4 229.904 62.312 230.672 60.904C231.483 59.4533 231.888 57.7467 231.888 55.784C231.888 53.7787 231.483 52.072 230.672 50.664C229.904 49.256 228.859 48.168 227.536 47.4C226.213 46.632 224.741 46.248 223.12 46.248C221.456 46.248 219.963 46.632 218.64 47.4C217.317 48.168 216.251 49.256 215.44 50.664C214.672 52.072 214.288 53.7787 214.288 55.784C214.288 57.7467 214.672 59.4533 215.44 60.904C216.251 62.312 217.317 63.4 218.64 64.168C219.963 64.936 221.456 65.32 223.12 65.32ZM232.144 73V65.96L232.336 55.72L231.696 45.544V25.512H241.68V73H232.144ZM267.305 73.512C263.635 73.512 260.371 72.744 257.513 71.208C254.697 69.672 252.457 67.5813 250.793 64.936C249.171 62.248 248.361 59.1973 248.361 55.784C248.361 52.328 249.171 49.2773 250.793 46.632C252.457 43.944 254.697 41.8533 257.513 40.36C260.371 38.824 263.635 38.056 267.305 38.056C270.931 38.056 274.174 38.824 277.033 40.36C279.891 41.8533 282.131 43.9227 283.753 46.568C285.374 49.2133 286.185 52.2853 286.185 55.784C286.185 59.1973 285.374 62.248 283.753 64.936C282.131 67.5813 279.891 69.672 277.033 71.208C274.174 72.744 270.931 73.512 267.305 73.512ZM267.305 65.32C268.969 65.32 270.462 64.936 271.785 64.168C273.107 63.4 274.153 62.312 274.921 60.904C275.689 59.4533 276.073 57.7467 276.073 55.784C276.073 53.7787 275.689 52.072 274.921 50.664C274.153 49.256 273.107 48.168 271.785 47.4C270.462 46.632 268.969 46.248 267.305 46.248C265.641 46.248 264.147 46.632 262.825 47.4C261.502 48.168 260.435 49.256 259.625 50.664C258.857 52.072 258.473 53.7787 258.473 55.784C258.473 57.7467 258.857 59.4533 259.625 60.904C260.435 62.312 261.502 63.4 262.825 64.168C264.147 64.936 265.641 65.32 267.305 65.32ZM309.242 73.512C305.573 73.512 302.309 72.744 299.45 71.208C296.634 69.672 294.394 67.5813 292.73 64.936C291.109 62.248 290.298 59.1973 290.298 55.784C290.298 52.328 291.109 49.2773 292.73 46.632C294.394 43.944 296.634 41.8533 299.45 40.36C302.309 38.824 305.573 38.056 309.242 38.056C312.869 38.056 316.111 38.824 318.97 40.36C321.829 41.8533 324.069 43.9227 325.69 46.568C327.311 49.2133 328.122 52.2853 328.122 55.784C328.122 59.1973 327.311 62.248 325.69 64.936C324.069 67.5813 321.829 69.672 318.97 71.208C316.111 72.744 312.869 73.512 309.242 73.512ZM309.242 65.32C310.906 65.32 312.399 64.936 313.722 64.168C315.045 63.4 316.09 62.312 316.858 60.904C317.626 59.4533 318.01 57.7467 318.01 55.784C318.01 53.7787 317.626 52.072 316.858 50.664C316.09 49.256 315.045 48.168 313.722 47.4C312.399 46.632 310.906 46.248 309.242 46.248C307.578 46.248 306.085 46.632 304.762 47.4C303.439 48.168 302.373 49.256 301.562 50.664C300.794 52.072 300.41 53.7787 300.41 55.784C300.41 57.7467 300.794 59.4533 301.562 60.904C302.373 62.312 303.439 63.4 304.762 64.168C306.085 64.936 307.578 65.32 309.242 65.32ZM334.796 73V25.512H344.78V73H334.796ZM370.43 73.512C366.76 73.512 363.496 72.744 360.638 71.208C357.822 69.672 355.582 67.5813 353.918 64.936C352.296 62.248 351.486 59.1973 351.486 55.784C351.486 52.328 352.296 49.2773 353.918 46.632C355.582 43.944 357.822 41.8533 360.638 40.36C363.496 38.824 366.76 38.056 370.43 38.056C374.056 38.056 377.299 38.824 380.158 40.36C383.016 41.8533 385.256 43.9227 386.878 46.568C388.499 49.2133 389.31 52.2853 389.31 55.784C389.31 59.1973 388.499 62.248 386.878 64.936C385.256 67.5813 383.016 69.672 380.158 71.208C377.299 72.744 374.056 73.512 370.43 73.512ZM370.43 65.32C372.094 65.32 373.587 64.936 374.91 64.168C376.232 63.4 377.278 62.312 378.046 60.904C378.814 59.4533 379.198 57.7467 379.198 55.784C379.198 53.7787 378.814 52.072 378.046 50.664C377.278 49.256 376.232 48.168 374.91 47.4C373.587 46.632 372.094 46.248 370.43 46.248C368.766 46.248 367.272 46.632 365.95 47.4C364.627 48.168 363.56 49.256 362.75 50.664C361.982 52.072 361.598 53.7787 361.598 55.784C361.598 57.7467 361.982 59.4533 362.75 60.904C363.56 62.312 364.627 63.4 365.95 64.168C367.272 64.936 368.766 65.32 370.43 65.32ZM412.175 85.928C408.932 85.928 405.796 85.5227 402.767 84.712C399.78 83.944 397.284 82.7707 395.279 81.192L399.247 74.024C400.698 75.2187 402.532 76.1573 404.751 76.84C407.012 77.5653 409.231 77.928 411.407 77.928C414.948 77.928 417.508 77.1387 419.087 75.56C420.708 73.9813 421.519 71.6347 421.519 68.52V63.336L422.159 54.696L422.031 45.992V38.568H431.503V67.24C431.503 73.64 429.839 78.3547 426.511 81.384C423.183 84.4133 418.404 85.928 412.175 85.928ZM410.639 71.336C407.439 71.336 404.538 70.6533 401.935 69.288C399.375 67.88 397.306 65.9387 395.727 63.464C394.191 60.9467 393.423 58.024 393.423 54.696C393.423 51.3253 394.191 48.4027 395.727 45.928C397.306 43.4107 399.375 41.4693 401.935 40.104C404.538 38.7387 407.439 38.056 410.639 38.056C413.54 38.056 416.1 38.6533 418.319 39.848C420.538 41 422.266 42.8133 423.503 45.288C424.74 47.72 425.359 50.856 425.359 54.696C425.359 58.4933 424.74 61.6293 423.503 64.104C422.266 66.536 420.538 68.3493 418.319 69.544C416.1 70.7387 413.54 71.336 410.639 71.336ZM412.623 63.144C414.372 63.144 415.93 62.8027 417.295 62.12C418.66 61.3947 419.727 60.392 420.495 59.112C421.263 57.832 421.647 56.36 421.647 54.696C421.647 52.9893 421.263 51.5173 420.495 50.28C419.727 49 418.66 48.0187 417.295 47.336C415.93 46.6107 414.372 46.248 412.623 46.248C410.874 46.248 409.316 46.6107 407.951 47.336C406.586 48.0187 405.498 49 404.687 50.28C403.919 51.5173 403.535 52.9893 403.535 54.696C403.535 56.36 403.919 57.832 404.687 59.112C405.498 60.392 406.586 61.3947 407.951 62.12C409.316 62.8027 410.874 63.144 412.623 63.144ZM445.148 85.928C443.356 85.928 441.585 85.6507 439.836 85.096C438.086 84.5413 436.657 83.7733 435.547 82.792L439.196 75.688C439.964 76.3707 440.838 76.904 441.82 77.288C442.844 77.672 443.846 77.864 444.828 77.864C446.236 77.864 447.345 77.5227 448.156 76.84C449.009 76.2 449.777 75.112 450.46 73.576L452.252 69.352L453.02 68.264L465.372 38.568H474.972L459.42 75.112C458.31 77.8853 457.03 80.0613 455.58 81.64C454.172 83.2187 452.593 84.328 450.844 84.968C449.137 85.608 447.238 85.928 445.148 85.928ZM451.036 74.344L435.675 38.568H445.98L457.884 67.368L451.036 74.344Z" fill="white"/>
<rect width="59.9723" height="21.1352" rx="10.5676" transform="matrix(0.705387 0.708822 -0.705387 0.708822 14.9085 32.5092)" fill="url(#paint0_linear_8_139)"/>
<path d="M35.0033 82.3961C30.8864 78.2592 30.8865 71.5519 35.0033 67.415L94.6373 7.49057C98.7541 3.35365 105.429 3.35365 109.546 7.49057C113.663 11.6275 113.663 18.3347 109.546 22.4717L49.9118 82.3961C45.7949 86.533 39.1202 86.533 35.0033 82.3961Z" fill="url(#paint1_linear_8_139)"/>
<defs>
<linearGradient id="paint0_linear_8_139" x1="-3.94187" y1="10.2191" x2="45.3761" y2="12.3778" gradientUnits="userSpaceOnUse">
<stop stop-color="#3F83F8"/>
<stop offset="1" stop-color="#5850EC"/>
</linearGradient>
<linearGradient id="paint1_linear_8_139" x1="67.4681" y1="40.0189" x2="79.7888" y2="52.374" gradientUnits="userSpaceOnUse">
<stop stop-color="#3F83F8"/>
<stop offset="1" stop-color="#5850EC"/>
</linearGradient>
</defs>
</svg>
